<svg width="161" height="131" viewBox="0 0 161 131" fill="none" xmlns="http://www.w3.org/2000/svg">
    <path d="M70.9438 35.8353C68.6775 36.5751 66.4265 37.463 64.1704 38.5039C60.7301 40.1011 57.8563 41.882 55.6052 43.8111C54.5639 44.6786 53.9462 45.5922 53.7215 46.6027C53.4866 47.6593 53.5579 48.6392 53.9304 49.6091C54.313 50.6197 54.905 51.4262 55.742 52.0847C56.4769 52.682 57.3139 52.9934 58.3143 53.0038C58.6002 53.0191 58.8962 52.9885 59.2024 52.912C59.8966 52.7385 60.6419 52.3354 61.331 51.7945C63.4187 49.993 65.9301 48.4111 68.7987 47.0435C71.5908 45.7168 74.3369 44.727 76.9707 44.0688C81.3195 42.9822 84.535 42.8295 86.7756 43.6362C89.9144 44.739 91.0422 46.8216 91.4299 48.3733C91.9299 50.3741 91.5162 52.2779 90.2094 53.9059C89.1169 55.2635 87.1568 56.6209 84.2167 58.0497L74.4011 62.8667C64.7028 67.6327 60.9812 74.0072 63.0626 82.3373C63.9809 86.0123 65.721 88.8963 68.3851 91.1373C71.0746 93.3936 74.438 94.8742 78.4089 95.4871C80.328 95.7885 82.3645 95.8653 84.4827 95.7482C85.1562 97.8358 86.4726 101.455 88.5545 105.36C89.8915 107.845 91.3101 110.051 92.5298 111.806C90.8352 112.23 89.0743 112.648 87.1959 113.031C67.1162 117.05 44.6546 106.416 35.0052 86.3763C32.4794 81.129 31.1173 75.591 30.7709 70.0377C29.0946 45.7066 42.7395 30.5186 58.0578 21.6802C59.7627 20.6903 63.9431 18.7563 68.7564 17.4452C69.4353 17.2105 70.2111 17.0166 71.0125 16.8381C70.6651 18.9205 70.3382 21.5184 70.2459 24.4481C70.0718 29.3939 70.6021 33.7732 70.9183 35.82L70.9438 35.8353Z" fill="#E64164"/>
    <path d="M147.307 62.957L147.225 62.9774C145.26 63.0996 143.152 63.2576 142.05 65.2685C140.462 68.2031 140.37 69.0503 140.171 70.8571C140.017 72.4139 139.777 74.6647 138.409 79.6053C137.454 83.0759 133.625 86.7656 133.625 86.7656C133.625 86.7656 136.631 93.7585 141.351 99.542C141.979 100.318 141.167 100.976 139.514 101.389C135.532 102.384 126.697 101.837 121.89 97.2683C121.89 97.2683 116.009 103.944 101.064 109.24C99.885 107.734 97.8029 104.87 95.9608 101.405C94.5268 98.7044 93.5217 96.1573 92.8788 94.3657C95.5176 93.6413 98.1361 92.6616 100.729 91.4063C103.511 90.0388 105.823 88.4415 107.692 86.6298C108.81 85.6347 109.371 84.5833 109.402 83.4043C109.448 82.1129 109.127 81.0002 108.417 79.9844C107.749 79.0452 106.891 78.4786 105.748 78.2436C105.335 78.1517 104.885 78.1772 104.375 78.3047C103.579 78.5037 102.696 78.9629 101.777 79.6263C100.067 80.943 98.0966 82.0861 95.9375 83.0811C93.7936 84.0506 91.6396 84.8057 89.5163 85.3363C85.7596 86.275 82.7329 86.3154 80.2627 85.4577C76.8023 84.2833 75.5623 81.9251 75.1235 80.1693C74.644 78.2501 75.0627 76.3667 76.3134 74.7744C77.3854 73.422 79.2996 72.0543 82.1785 70.6409L91.9125 65.8443C101.789 61.0119 105.633 54.7804 103.629 46.7566C102.71 43.0815 101.001 40.2333 98.3673 38.028C95.7339 35.8227 92.3858 34.4034 88.415 33.7905C85.5772 33.3716 82.4637 33.412 79.1358 33.8965C78.8706 31.9672 78.5342 28.5372 78.652 24.7551C78.7699 20.8863 79.3777 17.5891 79.7607 15.8232L81.3072 15.6754C81.6951 15.6652 82.0575 15.6397 82.425 15.6347L82.4659 15.6245C83.3693 15.5939 84.2982 15.5787 85.2118 15.5891C85.4313 15.5993 85.6048 15.5993 85.712 15.5942C98.1454 15.8714 112.099 19.9767 121.643 25.2707C123.481 26.2867 126.461 28.2317 130.947 31.8612C131.437 32.2593 130.263 33.0299 127.941 34.5864C126.639 35.4539 125 36.5358 123.076 37.9493C122.193 38.5821 123.091 39.6592 123.632 39.3071C128.783 36.0462 134.178 34.5463 134.79 34.9139C137.005 36.2259 139.766 37.1194 142.032 37.4208C145.217 37.8397 146.488 42.3161 148.074 47.9716C148.707 50.243 149.411 52.7134 150.304 55.1583C152.993 62.6208 150.344 62.7838 147.251 62.9927L147.307 62.957ZM128.979 59.9229C126.937 60.4331 125.676 62.5052 126.191 64.5673C126.707 66.6294 128.774 67.8699 130.836 67.3547C132.898 66.8394 134.138 64.7724 133.623 62.7103C133.108 60.6482 131.041 59.4077 128.979 59.9229Z" fill="#E64164"/>
    <path d="M30.1715 88.5599C30.7274 91.8266 28.5987 95.0265 25.332 95.8428C23.1065 96.3989 20.8455 95.7708 19.289 94.1424C17.7631 92.5498 17.2274 90.3192 17.8555 88.145C18.0291 87.5376 18.3559 86.7619 18.9327 85.9453C17.769 85.889 16.4317 85.9195 14.972 86.0673C13.8082 86.1845 12.7926 85.332 12.6754 84.1683C12.5836 83.1067 13.2626 82.1778 14.263 81.9278C14.3651 81.9023 14.4672 81.8768 14.5743 81.8717C18.0707 81.5404 20.8983 81.7449 23.144 82.3117C24.8182 81.3728 26.8548 80.6687 29.6468 79.9493C29.6468 79.9493 29.6927 80.3066 30.1519 81.797C30.6111 83.2875 30.8611 83.8541 30.8611 83.8541C29.779 84.1244 28.8296 84.4051 27.9976 84.7214C29.2582 85.8598 29.9675 87.2226 30.197 88.5752L30.1715 88.5599ZM23.7712 86.9054C22.4491 87.9516 22.0305 88.8805 21.9182 89.299C21.622 90.284 22.066 90.9323 22.3314 91.2131C22.8315 91.7388 23.5716 91.9227 24.327 91.7339C25.4703 91.4482 26.2156 90.3509 26.0269 89.2484C25.8688 88.3552 25.1339 87.4977 23.7661 86.885L23.7712 86.9054Z" fill="#E64164"/>
    <circle cx="129.823" cy="63.0731" r="6.48904" transform="rotate(-14.0293 129.823 63.0731)" fill="#E64164"/>
    <path d="M111.894 62.1279C112.459 60.7078 114.068 60.0147 115.489 60.5798L131.186 66.8262C132.606 67.3913 133.299 69.0006 132.734 70.4207C132.169 71.8408 130.559 72.5339 129.139 71.9688L113.442 65.7224C112.022 65.1573 111.329 63.548 111.894 62.1279Z" fill="white"/>
    <path d="M116.421 75.8158C115.121 75.0127 114.718 73.3075 115.521 72.0071L124.398 57.6331C125.201 56.3327 126.906 55.9296 128.207 56.7327C129.507 57.5358 129.91 59.241 129.107 60.5414L120.23 74.9154C119.427 76.2158 117.721 76.6189 116.421 75.8158Z" fill="white"/>
</svg>
